<?xml version="1.0" encoding="UTF-8" standalone="no"?><!-- Generator: Gravit.io --><svg xmlns="http://www.w3.org/2000/svg" xmlns:xlink="http://www.w3.org/1999/xlink" style="isolation:isolate" viewBox="-3000.609 -1154.451 1790.609 1934.451" width="1790.609pt" height="1934.451pt"><defs><clipPath id="_clipPath_n7YJPJfD5yf26iu2WkI0K4Q7XVFSMecU"><rect x="-3000.609" y="-1154.451" width="1790.609" height="1934.451"/></clipPath></defs><g clip-path="url(#_clipPath_n7YJPJfD5yf26iu2WkI0K4Q7XVFSMecU)"><path d=" M -2250.026 -275.01 C -2250.026 -222.697 -2207.617 -180.288 -2155.304 -180.288 C -2102.99 -180.288 -2060.579 -222.697 -2060.579 -275.01 C -2060.579 -327.324 -2102.99 -369.735 -2155.304 -369.735 C -2207.617 -369.735 -2250.026 -327.324 -2250.026 -275.01 Z " fill="rgb(158,37,54)"/><path d=" M -2464.827 -186.604 L -2298.643 -163.233 L -2290.69 50.585 L -2290.526 50.666 C -2290.608 57.969 -2288.742 65.354 -2284.684 72.008 L -2210.274 194.78 L -2247.925 353.015 C -2253.119 374.843 -2239.649 396.671 -2217.822 401.864 C -2214.657 402.595 -2211.491 403 -2208.408 403 C -2190.068 403 -2173.433 390.422 -2168.97 371.84 L -2127.423 197.459 C -2124.989 187.073 -2126.693 176.116 -2132.211 167.031 L -2151.198 135.708 L -2017.096 173.519 L -1886.603 273.404 C -1882.952 274.46 -1879.218 274.945 -1875.569 274.945 C -1857.879 274.945 -1841.569 263.261 -1836.535 245.408 C -1833.091 224.377 -1843.519 211.341 -1864.613 195.343 L -1987.904 97.507 L -2144.302 53.427 L -2144.302 -38.187 L -2124.989 -15.466 C -2118.255 -7.514 -2108.517 -3.376 -2098.698 -3.376 C -2092.125 -3.376 -2085.552 -5.244 -2079.71 -9.056 L -1965.783 -84.278 C -1949.876 -94.746 -1945.496 -116.168 -1955.963 -132.072 C -1966.431 -147.977 -1987.854 -152.359 -2003.758 -141.891 L -2092.207 -83.466 L -2266.751 -222.792 C -2271.621 -227.013 -2277.705 -229.933 -2284.521 -230.907 L -2455.171 -254.927 C -2473.997 -257.605 -2491.442 -244.459 -2494.121 -225.552 C -2496.8 -206.646 -2483.654 -189.28 -2464.827 -186.604 Z " fill="rgb(158,37,54)"/><path d=" M -1483.228 -1151.314 C -1485.391 -1149.475 -1490.692 -1143.309 -1495.018 -1137.468 C -1521.843 -1101.665 -1546.289 -1078.518 -1571.059 -1065.322 C -1585.445 -1057.75 -1596.37 -1055.046 -1612.919 -1055.046 C -1628.171 -1055.046 -1633.687 -1056.236 -1659.323 -1065.646 C -1664.731 -1067.593 -1670.464 -1068.999 -1673.493 -1068.999 C -1679.225 -1068.999 -1680.199 -1068.35 -1694.261 -1055.587 C -1717.084 -1035.143 -1744.125 -1017.728 -1764.136 -1010.698 C -1780.145 -1004.965 -1798.208 -1003.559 -1811.296 -1006.912 C -1820.382 -1009.183 -1833.362 -1015.565 -1845.585 -1023.786 C -1865.704 -1037.306 -1867.867 -1036.982 -1888.744 -1015.998 C -1905.293 -999.448 -1911.783 -990.47 -1932.551 -954.884 C -1953.319 -919.405 -1970.95 -903.072 -2004.482 -888.578 C -2023.951 -880.141 -2056.618 -871.055 -2067.434 -871.055 C -2075.439 -871.055 -2087.986 -873.975 -2109.944 -880.79 C -2138.824 -889.876 -2149.533 -891.931 -2167.813 -891.931 C -2180.684 -891.931 -2183.389 -891.606 -2190.311 -889.119 C -2203.94 -884.359 -2212.918 -877.653 -2223.518 -864.457 C -2224.6 -863.051 -2227.845 -854.073 -2230.657 -844.554 C -2236.498 -824.543 -2241.258 -810.374 -2245.801 -799.449 C -2247.531 -795.23 -2248.937 -791.336 -2248.937 -790.904 C -2248.937 -790.363 -2250.452 -786.793 -2252.182 -782.899 C -2253.913 -779.005 -2255.427 -775.544 -2255.427 -775.328 C -2255.427 -773.597 -2271.003 -743.202 -2276.844 -733.684 C -2286.255 -718 -2294.151 -708.048 -2304.643 -698.205 C -2314.486 -689.011 -2323.248 -684.035 -2334.713 -681.115 C -2343.583 -678.951 -2347.477 -679.492 -2372.788 -687.064 C -2395.395 -693.878 -2409.024 -699.503 -2426.871 -709.238 C -2430.332 -711.077 -2438.445 -717.567 -2441.798 -721.245 C -2449.37 -729.249 -2451.425 -740.606 -2447.098 -750.233 C -2442.339 -760.942 -2424.383 -775.652 -2403.832 -785.928 C -2398.856 -788.308 -2393.88 -791.553 -2392.907 -793.175 C -2385.443 -803.775 -2387.066 -827.247 -2395.827 -835.684 C -2400.046 -839.687 -2403.723 -840.768 -2413.783 -840.768 C -2430.765 -840.768 -2447.855 -843.905 -2457.266 -848.664 C -2473.491 -856.885 -2480.63 -873.218 -2480.305 -900.909 C -2480.197 -913.348 -2480.305 -914.213 -2483.442 -920.379 C -2489.824 -933.034 -2500.208 -941.579 -2507.022 -939.849 C -2510.916 -938.875 -2517.514 -931.952 -2534.496 -910.968 C -2557.644 -882.629 -2572.679 -858.94 -2592.798 -819.568 C -2609.78 -786.469 -2617.135 -775.977 -2630.007 -766.783 C -2638.444 -760.833 -2641.797 -760.184 -2657.806 -761.807 C -2683.225 -764.295 -2689.391 -764.403 -2695.989 -762.456 C -2700.964 -761.05 -2702.479 -759.968 -2703.885 -757.264 C -2707.563 -750.233 -2703.344 -728.167 -2695.015 -711.293 C -2691.446 -704.046 -2690.689 -703.073 -2683.874 -699.07 C -2679.764 -696.799 -2674.139 -692.905 -2671.219 -690.633 C -2652.614 -675.706 -2643.636 -661.753 -2640.391 -642.608 C -2639.201 -635.144 -2639.31 -632.332 -2641.473 -615.025 C -2644.718 -590.039 -2644.502 -588.957 -2633.685 -580.412 C -2629.466 -576.951 -2624.815 -573.057 -2623.517 -571.759 C -2617.027 -565.485 -2614.972 -557.264 -2618.217 -551.099 C -2620.272 -547.205 -2629.25 -538.66 -2634.009 -535.956 C -2649.045 -527.735 -2663.106 -531.088 -2684.848 -548.178 C -2692.636 -554.344 -2695.989 -556.291 -2698.477 -556.291 C -2700.748 -556.291 -2702.046 -555.642 -2702.479 -554.452 C -2703.128 -552.289 -2712.43 -534.874 -2715.675 -529.79 C -2734.929 -498.746 -2753.101 -480.358 -2775.383 -468.893 C -2789.12 -461.97 -2797.016 -459.915 -2813.349 -459.266 C -2844.934 -457.968 -2871.434 -468.568 -2922.813 -503.289 C -2935.361 -511.726 -2943.041 -515.512 -2946.177 -514.755 C -2947.584 -514.322 -2949.963 -512.375 -2951.586 -510.32 C -2954.182 -506.859 -2954.398 -505.885 -2953.965 -498.53 C -2953.641 -491.391 -2952.992 -489.336 -2947.367 -478.303 C -2944.014 -471.489 -2938.93 -462.294 -2936.226 -457.751 L -2931.359 -449.423 L -2935.144 -438.281 C -2940.877 -421.408 -2942.608 -412.213 -2942.716 -399.45 C -2942.824 -389.823 -2942.5 -387.551 -2940.553 -384.306 C -2937.2 -378.574 -2933.738 -377.276 -2927.14 -379.439 C -2920.217 -381.71 -2900.964 -381.819 -2889.823 -379.439 C -2865.377 -374.463 -2848.936 -364.837 -2842.121 -351.64 C -2840.066 -347.53 -2839.525 -344.934 -2839.525 -337.903 C -2839.525 -329.791 -2839.85 -328.601 -2844.177 -320.272 C -2849.909 -309.131 -2850.342 -308.482 -2864.944 -293.988 C -2876.41 -282.522 -2897.503 -265.648 -2909.293 -258.617 C -2919.785 -252.344 -2924.436 -236.984 -2919.893 -223.679 C -2917.081 -215.243 -2909.942 -209.077 -2892.527 -199.558 C -2891.013 -198.801 -2886.145 -196.097 -2881.71 -193.609 C -2877.275 -191.121 -2872.3 -188.309 -2870.677 -187.444 C -2864.62 -184.091 -2854.561 -174.247 -2851.856 -168.839 C -2849.693 -164.513 -2849.152 -161.917 -2849.152 -155.535 C -2849.152 -146.232 -2850.558 -140.716 -2855.21 -131.738 L -2858.671 -125.14 L -2855.967 -119.299 C -2840.715 -85.227 -2833.035 -48.991 -2833.035 -11.025 C -2833.035 28.24 -2841.04 57.661 -2858.779 82.972 C -2868.406 96.709 -2884.523 110.338 -2900.639 118.451 C -2920.326 128.294 -2951.478 133.594 -2981.44 132.296 L -2997.34 131.539 L -2999.071 135.541 C -3002.424 143.545 -3000.152 158.905 -2993.662 173.507 C -2992.797 175.454 -2991.175 178.915 -2990.201 181.079 C -2988.362 185.405 -2977.654 203.686 -2972.786 211.149 C -2954.831 238.299 -2924.328 274.967 -2903.993 293.788 C -2896.313 300.927 -2896.421 300.819 -2882.792 300.494 C -2868.622 300.17 -2857.806 302.441 -2846.556 308.174 C -2807.076 328.077 -2776.248 379.997 -2771.489 434.512 C -2769.001 463.826 -2775.924 488.163 -2791.391 503.847 C -2798.098 510.662 -2811.078 517.152 -2822.651 519.423 C -2827.303 520.397 -2832.062 521.803 -2833.144 522.452 C -2839.417 526.346 -2840.283 541.597 -2834.658 547.222 C -2826.221 555.551 -2826.005 555.767 -2816.053 557.281 C -2810.861 558.147 -2799.937 559.336 -2791.932 559.985 C -2743.582 563.771 -2715.026 567.449 -2683.766 573.723 C -2665.594 577.4 -2662.998 577.941 -2652.939 580.537 C -2648.179 581.835 -2642.555 583.241 -2640.499 583.782 C -2625.897 587.568 -2596.476 598.817 -2577.871 607.795 C -2565.865 613.636 -2560.564 616.665 -2542.609 627.914 C -2533.523 633.647 -2512.971 651.061 -2502.587 661.77 C -2486.362 678.644 -2482.685 688.054 -2480.521 718.99 C -2479.115 737.919 -2477.493 748.519 -2475.438 752.63 C -2472.95 757.605 -2467.758 761.175 -2462.998 761.175 C -2455.535 761.175 -2429.791 753.387 -2411.187 745.382 C -2404.481 742.57 -2379.71 729.915 -2371.165 724.939 C -2348.883 711.959 -2333.415 705.577 -2321.301 704.387 C -2315.027 703.738 -2313.296 704.063 -2305.617 707.092 C -2295.449 711.094 -2280.522 718.882 -2269.381 726.021 C -2257.591 733.7 -2235.957 746.464 -2231.631 748.411 C -2216.704 755.226 -2211.187 757.064 -2199.397 759.552 C -2189.879 761.499 -2169.868 761.716 -2164.568 759.769 C -2150.831 754.901 -2142.177 745.599 -2133.957 726.562 C -2128.44 713.906 -2122.166 701.142 -2119.03 696.599 C -2103.562 673.993 -2075.763 659.715 -2035.417 653.766 C -2028.927 652.792 -1999.83 662.743 -1979.495 672.911 C -1949.966 687.73 -1929.09 706.551 -1914.812 731.321 C -1911.783 736.513 -1909.295 741.056 -1909.295 741.272 C -1909.295 743.003 -1900.101 755.875 -1897.83 757.389 C -1895.017 759.228 -1893.936 759.228 -1883.119 757.281 C -1879.441 756.632 -1869.706 758.903 -1862.243 762.148 C -1827.63 777.075 -1819.517 779.887 -1809.566 779.996 C -1799.506 780.104 -1797.668 778.265 -1795.829 766.259 C -1786.418 703.63 -1761.432 652.684 -1724.223 620.018 C -1714.055 611.04 -1712.324 609.634 -1702.481 602.927 C -1675.331 584.431 -1643.314 571.992 -1590.745 559.228 C -1577.874 556.2 -1565.326 551.981 -1559.485 548.736 L -1555.267 546.465 L -1556.024 534.025 C -1556.673 522.668 -1558.187 511.094 -1561 496.708 C -1562.73 488.271 -1565.434 474.426 -1566.624 469.126 C -1567.165 466.422 -1567.706 463.717 -1567.814 463.177 C -1568.03 461.446 -1566.192 449.548 -1562.081 426.4 C -1559.594 412.122 -1555.051 398.493 -1550.94 392.328 C -1545.532 384.323 -1531.687 368.207 -1526.278 363.664 C -1516.002 355.01 -1512.757 354.037 -1493.396 353.171 C -1483.877 352.847 -1474.358 351.982 -1472.303 351.441 C -1457.809 347.547 -1442.882 338.244 -1429.253 324.94 C -1420.816 316.719 -1416.273 307.85 -1414.975 297.358 C -1412.92 281.565 -1410.973 275.941 -1403.51 265.232 C -1396.262 254.848 -1380.037 239.921 -1369.004 233.431 C -1348.237 221.209 -1335.906 211.69 -1316.76 193.193 C -1289.719 167.125 -1268.302 152.415 -1226.766 131.647 L -1211.839 124.183 L -1211.082 118.126 C -1210.649 114.773 -1210.216 106.336 -1210.108 99.413 L -1210 86.758 L -1216.057 78.104 C -1222.764 68.478 -1224.819 64.476 -1227.956 54.632 C -1231.417 43.491 -1237.366 17.099 -1239.746 1.631 C -1240.287 -2.479 -1241.26 -8.753 -1241.909 -12.431 C -1242.45 -16.217 -1243.207 -21.841 -1243.532 -25.086 C -1244.505 -33.523 -1245.479 -34.929 -1250.454 -34.929 C -1254.565 -34.929 -1254.673 -34.821 -1255.754 -29.845 C -1262.677 1.198 -1264.408 8.986 -1265.706 12.664 C -1266.138 14.178 -1267.112 17.531 -1267.869 20.236 C -1271.33 32.783 -1279.767 54.849 -1284.743 64.908 C -1292.206 79.619 -1305.511 96.601 -1316.219 104.822 C -1321.303 108.716 -1334.824 115.314 -1343.045 117.91 C -1356.565 122.236 -1367.49 123.318 -1394.099 122.885 L -1418.004 122.453 L -1427.414 116.071 C -1451.968 99.305 -1466.138 84.486 -1474.142 67.18 C -1478.901 56.796 -1479.767 50.414 -1479.875 28.023 L -1479.875 7.039 L -1483.12 3.902 C -1485.283 1.739 -1487.014 0.874 -1488.312 1.198 C -1492.963 2.713 -1498.696 -7.347 -1502.59 -24.113 C -1504.645 -32.874 -1504.429 -55.048 -1502.265 -60.024 C -1498.804 -67.704 -1492.639 -70.192 -1484.959 -66.947 L -1481.389 -65.54 L -1483.336 -73.22 C -1485.608 -82.522 -1485.716 -87.714 -1483.769 -95.178 C -1479.659 -110.429 -1470.897 -118.001 -1454.889 -120.056 L -1450.021 -120.597 L -1448.507 -130.548 C -1447.75 -135.957 -1446.452 -143.528 -1445.586 -147.422 C -1444.829 -151.316 -1443.747 -156.616 -1443.098 -159.321 C -1440.178 -174.031 -1432.065 -192.095 -1423.196 -203.561 C -1415.083 -213.945 -1414.434 -215.783 -1414.542 -228.114 C -1414.651 -241.527 -1416.814 -253.101 -1419.626 -256.454 C -1421.681 -258.617 -1422.763 -258.834 -1434.445 -258.834 C -1445.803 -258.834 -1447.425 -259.05 -1450.67 -261.321 C -1456.727 -265.324 -1461.487 -277.438 -1461.487 -288.796 C -1461.487 -293.663 -1461.054 -294.853 -1457.917 -297.99 C -1454.24 -301.992 -1446.019 -305.67 -1431.308 -310.104 C -1426.441 -311.619 -1420.708 -313.89 -1418.761 -315.08 C -1415.191 -317.243 -1410.648 -324.815 -1410.648 -328.384 C -1410.648 -334.442 -1418.004 -349.693 -1424.926 -357.914 C -1430.984 -365.161 -1435.527 -370.137 -1442.666 -377.816 C -1465.489 -401.938 -1474.683 -415.026 -1480.524 -432.549 C -1482.904 -439.904 -1483.336 -442.933 -1483.444 -454.074 C -1483.444 -468.352 -1482.146 -475.166 -1476.414 -489.769 C -1471.546 -502.1 -1468.626 -507.183 -1459.972 -518.433 C -1451.644 -529.249 -1441.8 -537.362 -1429.686 -543.203 C -1423.196 -546.34 -1404.699 -551.748 -1389.015 -555.209 C -1366.408 -560.077 -1357.647 -569.595 -1357.647 -589.173 C -1357.647 -599.341 -1358.296 -600.639 -1363.055 -600.639 C -1380.47 -600.639 -1397.56 -617.405 -1391.719 -628.762 C -1388.907 -634.062 -1366.733 -655.696 -1357.431 -661.969 C -1338.502 -675.057 -1327.901 -679.06 -1302.59 -682.737 C -1298.264 -683.386 -1294.262 -684.143 -1293.829 -684.468 C -1293.396 -684.792 -1292.639 -690.958 -1292.315 -698.205 C -1291.125 -717.351 -1289.827 -722.651 -1282.796 -734.873 C -1276.306 -746.231 -1275.441 -750.233 -1275.441 -770.893 C -1275.332 -789.606 -1275.873 -792.093 -1279.767 -792.093 C -1281.282 -792.093 -1313.191 -767.972 -1315.462 -765.16 C -1315.787 -764.727 -1317.409 -763.321 -1319.248 -761.915 C -1324.44 -757.913 -1330.389 -752.505 -1343.153 -739.957 L -1355.159 -728.167 L -1359.053 -730.439 C -1365.435 -734.224 -1374.413 -735.847 -1393.991 -736.496 L -1412.379 -737.253 L -1414.867 -731.628 C -1416.165 -728.492 -1418.004 -722.11 -1418.977 -717.351 C -1420.816 -708.265 -1420.816 -708.156 -1415.949 -681.223 C -1415.408 -678.302 -1415.191 -673.759 -1415.516 -671.272 C -1416.057 -667.378 -1416.814 -666.404 -1419.734 -664.998 C -1430.227 -660.022 -1434.553 -649.747 -1437.69 -623.354 C -1439.421 -608.643 -1438.772 -609.725 -1447.858 -608.86 C -1452.293 -608.427 -1461.703 -606.48 -1468.842 -604.425 C -1485.5 -599.557 -1496.641 -599.233 -1504.537 -603.235 C -1510.919 -606.48 -1519.356 -614.809 -1525.521 -623.895 C -1528.009 -627.681 -1531.47 -631.358 -1533.093 -632.007 C -1536.338 -633.413 -1553.644 -632.981 -1572.898 -630.926 C -1586.311 -629.519 -1609.026 -630.06 -1616.489 -632.115 C -1626.981 -634.82 -1630.01 -635.793 -1635.418 -638.173 L -1641.151 -640.552 L -1643.314 -635.793 C -1644.504 -633.089 -1645.91 -627.14 -1646.451 -622.597 C -1649.588 -594.69 -1657.376 -584.63 -1683.552 -573.922 C -1688.42 -571.975 -1693.503 -570.353 -1694.91 -570.353 C -1699.128 -570.353 -1713.081 -577.383 -1718.382 -582.359 C -1727.251 -590.471 -1732.66 -599.774 -1741.746 -622.272 C -1746.397 -633.954 -1749.317 -639.146 -1752.67 -641.526 C -1755.483 -643.581 -1755.266 -658.833 -1752.454 -670.298 C -1751.264 -674.949 -1750.291 -681.115 -1750.291 -684.035 C -1750.291 -688.578 -1750.832 -689.984 -1754.293 -693.878 C -1759.701 -699.828 -1775.602 -709.995 -1780.577 -710.644 C -1793.341 -712.375 -1801.021 -695.176 -1799.723 -668.135 L -1799.182 -656.128 L -1805.456 -655.479 C -1813.892 -654.722 -1821.356 -651.153 -1838.014 -640.012 C -1850.02 -632.007 -1852.724 -630.709 -1857.592 -630.168 C -1863.108 -629.628 -1863.649 -629.844 -1871.112 -635.144 C -1881.496 -642.499 -1887.878 -646.177 -1895.774 -649.422 C -1902.048 -651.91 -1903.022 -652.018 -1925.52 -651.802 C -1946.396 -651.477 -1949.425 -651.694 -1955.374 -653.641 C -1971.058 -658.941 -1984.687 -682.196 -1990.961 -714.755 C -1993.557 -728.059 -1993.665 -760.293 -1991.069 -770.785 C -1986.742 -788.632 -1983.065 -795.23 -1970.517 -807.778 C -1955.158 -823.245 -1941.637 -833.413 -1926.602 -840.876 C -1911.242 -848.556 -1905.185 -849.962 -1888.203 -849.962 C -1870.139 -849.962 -1869.057 -849.746 -1841.15 -838.497 C -1819.95 -830.06 -1815.948 -828.87 -1808.809 -828.87 C -1803.509 -828.87 -1802.211 -829.411 -1793.665 -835.144 C -1782.308 -842.932 -1775.926 -846.393 -1770.301 -848.124 C -1754.726 -852.883 -1746.289 -852.775 -1722.167 -847.475 C -1720.653 -847.15 -1713.622 -844.554 -1706.483 -841.742 L -1693.503 -836.442 L -1691.881 -838.821 C -1686.364 -846.934 -1679.658 -852.234 -1670.788 -855.479 C -1666.245 -857.101 -1660.621 -857.534 -1633.904 -857.967 L -1602.427 -858.616 L -1597.127 -861.861 C -1591.503 -865.322 -1590.637 -866.728 -1579.712 -889.984 C -1577.116 -895.392 -1573.222 -903.18 -1570.951 -907.291 C -1554.618 -936.928 -1545.748 -948.61 -1514.596 -982.25 C -1501.725 -996.095 -1496.424 -1003.234 -1490.367 -1014.808 C -1479.442 -1035.684 -1474.034 -1058.723 -1470.14 -1101.99 C -1469.166 -1112.698 -1468.517 -1134.764 -1468.95 -1144.824 C -1469.058 -1149.367 -1473.385 -1154.451 -1477.063 -1154.451 C -1478.361 -1154.451 -1481.173 -1153.044 -1483.228 -1151.314 Z  M -2131.577 -575.761 C -2095.558 -572.84 -2058.565 -566.999 -2021.788 -558.238 C -1998.424 -552.721 -1945.531 -535.956 -1937.202 -531.304 C -1936.12 -530.764 -1934.822 -530.331 -1934.173 -530.331 C -1933.524 -530.331 -1930.928 -529.357 -1928.224 -528.168 C -1925.52 -526.978 -1921.193 -525.031 -1918.489 -523.841 C -1915.785 -522.651 -1913.405 -521.678 -1913.081 -521.678 C -1912.107 -521.678 -1871.437 -501.559 -1864.406 -497.557 C -1815.948 -470.299 -1778.847 -442.175 -1742.07 -404.75 C -1720.653 -383.008 -1709.512 -369.92 -1692.746 -346.881 C -1685.932 -337.47 -1673.276 -318.433 -1669.166 -311.294 C -1633.471 -249.748 -1613.677 -197.828 -1598.533 -126.871 C -1591.719 -94.745 -1588.474 -73.112 -1584.58 -31.684 C -1582.741 -12.431 -1582.741 48.142 -1584.58 65.125 C -1588.041 96.817 -1591.719 117.802 -1598.533 144.086 C -1604.807 168.315 -1610.648 186.595 -1617.354 202.712 C -1617.895 204.118 -1618.76 206.282 -1619.301 207.58 C -1619.842 208.986 -1621.248 212.339 -1622.546 215.151 C -1623.844 217.964 -1624.818 220.56 -1624.818 220.884 C -1624.818 222.29 -1642.016 256.471 -1648.506 267.936 C -1661.378 290.868 -1687.771 329.158 -1702.265 345.816 C -1718.706 364.745 -1724.655 371.235 -1739.366 385.838 C -1755.05 401.414 -1771.383 416.124 -1784.363 426.4 C -1787.284 428.78 -1789.988 430.943 -1790.312 431.267 C -1794.098 435.27 -1825.899 457.66 -1844.071 469.018 C -1880.739 491.949 -1931.794 516.827 -1964.46 527.535 C -1965.974 528.076 -1972.248 530.24 -1978.522 532.403 C -1984.795 534.674 -1991.61 536.946 -1993.665 537.487 C -1995.72 538.028 -1999.073 538.893 -2000.912 539.542 C -2009.025 541.813 -2012.269 542.679 -2026.656 546.465 C -2034.984 548.628 -2043.962 550.791 -2046.666 551.332 C -2084.633 558.579 -2104.968 561.283 -2134.822 563.23 C -2172.464 565.718 -2204.914 563.771 -2246.233 556.632 C -2257.807 554.577 -2264.297 553.279 -2278.142 550.034 C -2333.415 537.162 -2394.097 512.392 -2444.069 482.43 C -2449.37 479.293 -2453.913 476.697 -2454.129 476.697 C -2454.994 476.697 -2498.585 446.843 -2499.883 445.329 C -2500.208 445.005 -2504.751 441.327 -2510.159 437.217 C -2515.459 433.106 -2521.3 428.455 -2523.139 426.833 C -2524.87 425.318 -2530.711 420.235 -2536.119 415.583 C -2548.991 404.55 -2579.061 374.156 -2591.392 359.878 C -2596.8 353.604 -2605.454 342.896 -2610.645 336.081 C -2615.837 329.267 -2620.813 322.669 -2621.787 321.479 C -2625.14 317.477 -2643.528 288.921 -2650.451 277.13 C -2661.375 258.418 -2670.245 240.462 -2682.143 213.312 C -2688.525 198.494 -2698.693 169.072 -2703.452 151.117 C -2717.189 99.197 -2722.706 54.416 -2722.706 -4.643 C -2722.598 -30.603 -2720.867 -69.759 -2718.92 -86.308 C -2716.648 -106.103 -2714.701 -117.136 -2708.536 -146.881 C -2704.534 -166.135 -2694.258 -199.126 -2683.766 -225.843 C -2670.137 -261.105 -2641.257 -311.402 -2616.378 -343.744 C -2614.107 -346.773 -2610.862 -350.883 -2609.348 -352.938 C -2582.955 -387.119 -2544.556 -424.652 -2504.21 -455.913 C -2489.391 -467.378 -2440.067 -500.044 -2437.688 -500.044 C -2437.471 -500.044 -2433.794 -502.1 -2429.359 -504.696 C -2390.743 -527.41 -2327.682 -552.721 -2282.469 -563.646 C -2258.564 -569.487 -2257.05 -569.812 -2239.743 -572.624 C -2210.646 -577.275 -2166.947 -578.573 -2131.577 -575.761 Z " fill="rgb(158,37,54)"/></g></svg>